<svg width="21" height="21" viewBox="0 0 21 21" fill="none" xmlns="http://www.w3.org/2000/svg">
<path fill-rule="evenodd" clip-rule="evenodd" d="M10.5 0C4.70138 0 0 4.70138 0 10.5C0 16.2986 4.70138 21 10.5 21C16.2986 21 21 16.2986 21 10.5C21 4.70138 16.2986 0 10.5 0ZM10.5 1.75C15.3247 1.75 19.25 5.67525 19.25 10.5C19.25 15.3247 15.3247 19.25 10.5 19.25C5.67525 19.25 1.75 15.3247 1.75 10.5C1.75 5.67525 5.67525 1.75 10.5 1.75ZM12.8555 14.7779C12.9964 14.8785 13.1775 14.903 13.3394 14.8417C13.5012 14.7805 13.6211 14.6422 13.6561 14.4742C14.0368 12.6875 14.959 8.16462 15.3046 6.53975C15.3309 6.41725 15.288 6.29037 15.1917 6.20812C15.0955 6.12675 14.9616 6.10313 14.8426 6.14688C13.0086 6.82588 7.35875 8.94512 5.04962 9.8C4.90262 9.85425 4.80725 9.99513 4.8125 10.15C4.81775 10.3049 4.92188 10.4387 5.0715 10.4834C6.1075 10.7931 7.46725 11.2245 7.46725 11.2245C7.46725 11.2245 8.10162 13.1434 8.43325 14.119C8.47437 14.2406 8.57063 14.3378 8.69663 14.3701C8.8235 14.4034 8.95738 14.3692 9.05188 14.28C9.58388 13.7777 10.4064 13.0016 10.4064 13.0016C10.4064 13.0016 11.9691 14.147 12.8555 14.7779V14.7779ZM8.03863 10.9821L8.77363 13.405L8.93638 11.8702C8.93638 11.8702 11.774 9.31087 13.3919 7.85137C13.44 7.80937 13.4461 7.73762 13.4067 7.68687C13.3674 7.637 13.2965 7.62475 13.2422 7.65888C11.3671 8.85588 8.03863 10.9821 8.03863 10.9821V10.9821Z" fill="white"/>
</svg>
