<svg width="21" height="21" viewBox="0 0 21 21" fill="none" xmlns="http://www.w3.org/2000/svg">
<path d="M0.0498748 21L1.526 15.6074C0.615125 14.0289 0.1365 12.2395 0.137375 10.4046C0.14 4.66812 4.80812 0 10.5437 0C13.3271 0.000875 15.9399 1.085 17.9051 3.052C19.8695 5.019 20.951 7.6335 20.9501 10.4143C20.9475 16.1516 16.2794 20.8198 10.5437 20.8198C8.8025 20.8189 7.08662 20.3823 5.56675 19.5528L0.0498748 21V21ZM5.82225 17.6689C7.28875 18.5395 8.68875 19.061 10.5402 19.0619C15.3072 19.0619 19.1905 15.1821 19.1931 10.4125C19.1949 5.63325 15.33 1.75875 10.5472 1.757C5.77675 1.757 1.89612 5.63675 1.89437 10.4055C1.8935 12.3524 2.464 13.8101 3.42212 15.3352L2.548 18.5272L5.82225 17.6689V17.6689ZM15.7859 12.8879C15.7211 12.7794 15.5479 12.7146 15.2871 12.5842C15.0273 12.4539 13.7489 11.8247 13.51 11.7381C13.272 11.6515 13.0987 11.6078 12.9246 11.8685C12.7514 12.1284 12.2526 12.7146 12.1012 12.8879C11.9499 13.0611 11.7976 13.083 11.5377 12.9526C11.2779 12.8223 10.4396 12.5484 9.4465 11.662C8.67387 10.9725 8.1515 10.1211 8.00012 9.86038C7.84875 9.6005 7.98437 9.45963 8.11387 9.33013C8.23112 9.21375 8.37375 9.0265 8.50412 8.87425C8.63625 8.72375 8.67912 8.61525 8.76662 8.44113C8.85325 8.26788 8.81038 8.11563 8.74475 7.98525C8.67913 7.85575 8.15937 6.57563 7.94325 6.055C7.7315 5.54838 7.51712 5.61662 7.35787 5.60875L6.85912 5.6C6.68587 5.6 6.40412 5.66475 6.16612 5.9255C5.92812 6.18625 5.25612 6.8145 5.25612 8.09463C5.25612 9.37475 6.188 10.6111 6.3175 10.7844C6.44787 10.9576 8.15062 13.5844 10.759 14.7105C11.3794 14.9783 11.8641 15.1384 12.2412 15.2582C12.8642 15.456 13.4313 15.428 13.8793 15.3615C14.3789 15.2871 15.4175 14.7324 15.6345 14.1251C15.8515 13.517 15.8515 12.9964 15.7859 12.8879V12.8879Z" fill="white"/>
</svg>
